# MagicaVoxel @ ephtracy

# material
mtllib RedTruck.mtl
usemtl palette

# normals
vn -1 0 0
vn 1 0 0
vn 0 0 1
vn 0 0 -1
vn 0 -1 0
vn 0 1 0

# texcoords
vt 0.373047 0.5
vt 0.853516 0.5
vt 0.857422 0.5
vt 0.865234 0.5
vt 0.951172 0.5
vt 0.955078 0.5
vt 0.958984 0.5
vt 0.966797 0.5
vt 0.978516 0.5
vt 0.982422 0.5
vt 0.986328 0.5
vt 0.994141 0.5

# verts
v -20 0 -6.5
v -20 0 -7.5
v -20 1 -6.5
v -20 1 -7.5
v -19 1 8.5
v -19 1 -6.5
v -19 1 -7.5
v -19 1 -8.5
v -19 2 8.5
v -19 2 -8.5
v -18 1 9.5
v -18 1 8.5
v -18 1 -8.5
v -18 1 -9.5
v -18 2 9.5
v -18 2 8.5
v -18 2 -8.5
v -18 2 -9.5
v -18 3 0.5
v -18 3 -0.5
v -18 4 8.5
v -18 4 7.5
v -18 4 -7.5
v -18 4 -8.5
v -18 5 8.5
v -18 5 7.5
v -18 5 -7.5
v -18 5 -8.5
v -18 7 8.5
v -18 7 7.5
v -18 7 -7.5
v -18 7 -8.5
v -18 8 1.5
v -18 8 0.5
v -18 9 1.5
v -18 9 0.5
v -18 14 0.5
v -18 14 -0.5
v -18 15 8.5
v -18 15 -8.5
v -11 0 8.5
v -11 0 7.5
v -11 0 -7.5
v -11 0 -8.5
v -11 1 8.5
v -11 1 7.5
v -11 1 -7.5
v -11 1 -8.5
v -8 4 7.5
v -8 4 -7.5
v -8 5 7.5
v -8 5 -7.5
v 1 17 8.5
v 1 17 7.5
v 1 17 -7.5
v 1 17 -8.5
v 1 18 8.5
v 1 18 7.5
v 1 18 -7.5
v 1 18 -8.5
v 2 15 8.5
v 2 15 7.5
v 2 15 -7.5
v 2 15 -8.5
v 2 17 8.5
v 2 17 7.5
v 2 17 -7.5
v 2 17 -8.5
v 3 1 9.5
v 3 1 8.5
v 3 1 -8.5
v 3 1 -9.5
v 3 2 9.5
v 3 2 8.5
v 3 2 -8.5
v 3 2 -9.5
v 11 8 9.5
v 11 8 8.5
v 11 8 -8.5
v 11 8 -9.5
v 11 9 9.5
v 11 9 8.5
v 11 9 -8.5
v 11 9 -9.5
v 12 0 8.5
v 12 0 7.5
v 12 0 -7.5
v 12 0 -8.5
v 12 1 8.5
v 12 1 7.5
v 12 1 -7.5
v 12 1 -8.5
v 16 1 -8.5
v 16 1 -9.5
v 16 2 -8.5
v 16 2 -9.5
v 17 1 9.5
v 17 1 8.5
v 17 2 9.5
v 17 2 8.5
v -16 0 -6.5
v -16 0 -7.5
v -16 1 -6.5
v -16 1 -7.5
v -12 1 9.5
v -12 1 8.5
v -12 1 -8.5
v -12 1 -9.5
v -12 2 9.5
v -12 2 8.5
v -12 2 -8.5
v -12 2 -9.5
v -11 4 7.5
v -11 4 -7.5
v -11 5 7.5
v -11 5 -7.5
v -8 0 8.5
v -8 0 7.5
v -8 0 -7.5
v -8 0 -8.5
v -8 1 8.5
v -8 1 7.5
v -8 1 -7.5
v -8 1 -8.5
v 3 13 8.5
v 3 13 7.5
v 3 13 -7.5
v 3 13 -8.5
v 3 15 7.5
v 3 15 -7.5
v 3 18 8.5
v 3 18 7.5
v 3 18 -7.5
v 3 18 -8.5
v 9 1 9.5
v 9 1 8.5
v 9 1 -8.5
v 9 1 -9.5
v 9 2 9.5
v 9 2 8.5
v 9 2 -8.5
v 9 2 -9.5
v 12 7 8.5
v 12 7 7.5
v 12 7 0.5
v 12 7 -0.5
v 12 7 -7.5
v 12 7 -8.5
v 12 8 9.5
v 12 8 8.5
v 12 8 7.5
v 12 8 -7.5
v 12 8 -8.5
v 12 8 -9.5
v 12 9 9.5
v 12 9 8.5
v 12 9 -8.5
v 12 9 -9.5
v 12 11 2.5
v 12 11 -2.5
v 12 12 7.5
v 12 12 2.5
v 12 12 -2.5
v 12 12 -7.5
v 12 13 8.5
v 12 13 -8.5
v 15 0 8.5
v 15 0 7.5
v 15 0 -7.5
v 15 0 -8.5
v 15 1 8.5
v 15 1 7.5
v 15 1 -7.5
v 15 1 -8.5
v 19 1 9.5
v 19 1 8.5
v 19 1 -8.5
v 19 1 -9.5
v 19 2 9.5
v 19 2 8.5
v 19 2 -8.5
v 19 2 -9.5
v 19 3 6.5
v 19 3 5.5
v 19 3 4.5
v 19 3 3.5
v 19 3 2.5
v 19 3 1.5
v 19 3 0.5
v 19 3 -0.5
v 19 3 -1.5
v 19 3 -2.5
v 19 3 -3.5
v 19 3 -4.5
v 19 3 -5.5
v 19 3 -6.5
v 19 6 8.5
v 19 6 7.5
v 19 6 6.5
v 19 6 5.5
v 19 6 4.5
v 19 6 3.5
v 19 6 2.5
v 19 6 1.5
v 19 6 0.5
v 19 6 -0.5
v 19 6 -1.5
v 19 6 -2.5
v 19 6 -3.5
v 19 6 -4.5
v 19 6 -5.5
v 19 6 -6.5
v 19 6 -7.5
v 19 6 -8.5
v 19 7 8.5
v 19 7 7.5
v 19 7 0.5
v 19 7 -0.5
v 19 7 -7.5
v 19 7 -8.5
v 20 1 8.5
v 20 1 -8.5
v 20 2 8.5
v 20 2 -8.5
v -18 1 9.5
v -18 2 9.5
v -12 1 9.5
v -12 2 9.5
v 3 1 9.5
v 3 2 9.5
v 9 1 9.5
v 9 2 9.5
v 11 8 9.5
v 11 9 9.5
v 12 8 9.5
v 12 9 9.5
v 17 1 9.5
v 17 2 9.5
v 19 1 9.5
v 19 2 9.5
v -19 1 8.5
v -19 2 8.5
v -18 1 8.5
v -18 2 8.5
v -18 4 8.5
v -18 5 8.5
v -18 7 8.5
v -18 15 8.5
v -17 4 8.5
v -17 5 8.5
v -17 7 8.5
v -12 1 8.5
v -12 2 8.5
v -12 4 8.5
v -11 0 8.5
v -11 1 8.5
v -11 4 8.5
v -11 5 8.5
v -8 0 8.5
v -8 1 8.5
v -8 4 8.5
v -8 5 8.5
v -7 1 8.5
v -7 2 8.5
v -7 4 8.5
v 1 17 8.5
v 1 18 8.5
v 2 2 8.5
v 2 15 8.5
v 2 17 8.5
v 3 1 8.5
v 3 2 8.5
v 3 13 8.5
v 3 18 8.5
v 4 6 8.5
v 4 7 8.5
v 4 8 8.5
v 4 12 8.5
v 6 6 8.5
v 6 7 8.5
v 7 6 8.5
v 7 8 8.5
v 9 1 8.5
v 9 2 8.5
v 11 1 8.5
v 11 2 8.5
v 11 4 8.5
v 11 7 8.5
v 11 8 8.5
v 11 9 8.5
v 11 12 8.5
v 12 0 8.5
v 12 1 8.5
v 12 4 8.5
v 12 5 8.5
v 12 7 8.5
v 12 8 8.5
v 12 9 8.5
v 12 13 8.5
v 15 0 8.5
v 15 1 8.5
v 15 4 8.5
v 15 5 8.5
v 16 1 8.5
v 16 2 8.5
v 16 4 8.5
v 17 1 8.5
v 17 2 8.5
v 19 1 8.5
v 19 2 8.5
v 19 6 8.5
v 19 7 8.5
v 20 1 8.5
v 20 2 8.5
v -20 0 -6.5
v -20 1 -6.5
v -19 1 -6.5
v -16 0 -6.5
v -16 1 -6.5
v -11 0 -7.5
v -11 1 -7.5
v -11 4 -7.5
v -11 5 -7.5
v -8 0 -7.5
v -8 1 -7.5
v -8 4 -7.5
v -8 5 -7.5
v 1 17 -7.5
v 1 18 -7.5
v 2 15 -7.5
v 2 17 -7.5
v 3 15 -7.5
v 3 18 -7.5
v 12 0 -7.5
v 12 1 -7.5
v 15 0 -7.5
v 15 1 -7.5
v -11 0 7.5
v -11 1 7.5
v -11 4 7.5
v -11 5 7.5
v -8 0 7.5
v -8 1 7.5
v -8 4 7.5
v -8 5 7.5
v 1 17 7.5
v 1 18 7.5
v 2 15 7.5
v 2 17 7.5
v 3 15 7.5
v 3 18 7.5
v 12 0 7.5
v 12 1 7.5
v 15 0 7.5
v 15 1 7.5
v -20 0 -7.5
v -20 1 -7.5
v -19 1 -7.5
v -16 0 -7.5
v -16 1 -7.5
v -19 1 -8.5
v -19 2 -8.5
v -18 1 -8.5
v -18 2 -8.5
v -18 4 -8.5
v -18 5 -8.5
v -18 7 -8.5
v -18 15 -8.5
v -17 4 -8.5
v -17 5 -8.5
v -17 7 -8.5
v -12 1 -8.5
v -12 2 -8.5
v -12 4 -8.5
v -11 0 -8.5
v -11 1 -8.5
v -11 4 -8.5
v -11 5 -8.5
v -8 0 -8.5
v -8 1 -8.5
v -8 4 -8.5
v -8 5 -8.5
v -7 1 -8.5
v -7 2 -8.5
v -7 4 -8.5
v 1 17 -8.5
v 1 18 -8.5
v 2 2 -8.5
v 2 15 -8.5
v 2 17 -8.5
v 3 1 -8.5
v 3 2 -8.5
v 3 13 -8.5
v 3 18 -8.5
v 4 6 -8.5
v 4 7 -8.5
v 4 8 -8.5
v 4 12 -8.5
v 6 6 -8.5
v 6 7 -8.5
v 7 6 -8.5
v 7 8 -8.5
v 9 1 -8.5
v 9 2 -8.5
v 11 1 -8.5
v 11 2 -8.5
v 11 4 -8.5
v 11 8 -8.5
v 11 9 -8.5
v 11 12 -8.5
v 12 0 -8.5
v 12 1 -8.5
v 12 2 -8.5
v 12 4 -8.5
v 12 5 -8.5
v 12 7 -8.5
v 12 8 -8.5
v 12 9 -8.5
v 12 13 -8.5
v 15 0 -8.5
v 15 1 -8.5
v 15 2 -8.5
v 15 4 -8.5
v 15 5 -8.5
v 16 1 -8.5
v 16 2 -8.5
v 16 4 -8.5
v 19 1 -8.5
v 19 2 -8.5
v 19 6 -8.5
v 19 7 -8.5
v 20 1 -8.5
v 20 2 -8.5
v -18 1 -9.5
v -18 2 -9.5
v -12 1 -9.5
v -12 2 -9.5
v 3 1 -9.5
v 3 2 -9.5
v 9 1 -9.5
v 9 2 -9.5
v 11 8 -9.5
v 11 9 -9.5
v 12 8 -9.5
v 12 9 -9.5
v 16 1 -9.5
v 16 2 -9.5
v 19 1 -9.5
v 19 2 -9.5
v -11 0 8.5
v -8 0 8.5
v 12 0 8.5
v 15 0 8.5
v -11 0 7.5
v -8 0 7.5
v 12 0 7.5
v 15 0 7.5
v -20 0 -6.5
v -16 0 -6.5
v -20 0 -7.5
v -16 0 -7.5
v -11 0 -7.5
v -8 0 -7.5
v 12 0 -7.5
v 15 0 -7.5
v -11 0 -8.5
v -8 0 -8.5
v 12 0 -8.5
v 15 0 -8.5
v -18 1 9.5
v -12 1 9.5
v 3 1 9.5
v 9 1 9.5
v 17 1 9.5
v 19 1 9.5
v -19 1 8.5
v -18 1 8.5
v -12 1 8.5
v -11 1 8.5
v -8 1 8.5
v -7 1 8.5
v 3 1 8.5
v 9 1 8.5
v 11 1 8.5
v 12 1 8.5
v 15 1 8.5
v 16 1 8.5
v 17 1 8.5
v 19 1 8.5
v 20 1 8.5
v -12 1 7.5
v -11 1 7.5
v -8 1 7.5
v -7 1 7.5
v 11 1 7.5
v 12 1 7.5
v 15 1 7.5
v 16 1 7.5
v -19 1 -6.5
v -16 1 -6.5
v -19 1 -7.5
v -16 1 -7.5
v -12 1 -7.5
v -11 1 -7.5
v -8 1 -7.5
v -7 1 -7.5
v 11 1 -7.5
v 12 1 -7.5
v 15 1 -7.5
v 16 1 -7.5
v -19 1 -8.5
v -18 1 -8.5
v -12 1 -8.5
v -11 1 -8.5
v -8 1 -8.5
v -7 1 -8.5
v 3 1 -8.5
v 9 1 -8.5
v 11 1 -8.5
v 12 1 -8.5
v 15 1 -8.5
v 16 1 -8.5
v 19 1 -8.5
v 20 1 -8.5
v -18 1 -9.5
v -12 1 -9.5
v 3 1 -9.5
v 9 1 -9.5
v 16 1 -9.5
v 19 1 -9.5
v -11 5 7.5
v -8 5 7.5
v -11 5 -7.5
v -8 5 -7.5
v 11 8 9.5
v 12 8 9.5
v 11 8 8.5
v 12 8 8.5
v 11 8 -8.5
v 12 8 -8.5
v 11 8 -9.5
v 12 8 -9.5
v 1 17 8.5
v 2 17 8.5
v 1 17 7.5
v 2 17 7.5
v 1 17 -7.5
v 2 17 -7.5
v 1 17 -8.5
v 2 17 -8.5
v -20 1 -6.5
v -19 1 -6.5
v -20 1 -7.5
v -19 1 -7.5
v -18 2 9.5
v -12 2 9.5
v 3 2 9.5
v 9 2 9.5
v 17 2 9.5
v 19 2 9.5
v -19 2 8.5
v -18 2 8.5
v -12 2 8.5
v 3 2 8.5
v 9 2 8.5
v 17 2 8.5
v 19 2 8.5
v 20 2 8.5
v -19 2 -8.5
v -18 2 -8.5
v -12 2 -8.5
v 3 2 -8.5
v 9 2 -8.5
v 16 2 -8.5
v 19 2 -8.5
v 20 2 -8.5
v -18 2 -9.5
v -12 2 -9.5
v 3 2 -9.5
v 9 2 -9.5
v 16 2 -9.5
v 19 2 -9.5
v -11 4 7.5
v -8 4 7.5
v -11 4 -7.5
v -8 4 -7.5
v 12 7 8.5
v 19 7 8.5
v 12 7 7.5
v 19 7 7.5
v 12 7 0.5
v 19 7 0.5
v 12 7 -0.5
v 19 7 -0.5
v 12 7 -7.5
v 19 7 -7.5
v 12 7 -8.5
v 19 7 -8.5
v 11 9 9.5
v 12 9 9.5
v 11 9 8.5
v 12 9 8.5
v 11 9 -8.5
v 12 9 -8.5
v 11 9 -9.5
v 12 9 -9.5
v 3 13 8.5
v 12 13 8.5
v 3 13 7.5
v 3 13 -7.5
v 3 13 -8.5
v 12 13 -8.5
v -18 15 8.5
v 2 15 8.5
v 2 15 7.5
v 3 15 7.5
v 2 15 -7.5
v 3 15 -7.5
v -18 15 -8.5
v 2 15 -8.5
v 1 18 8.5
v 3 18 8.5
v 1 18 7.5
v 3 18 7.5
v 1 18 -7.5
v 3 18 -7.5
v 1 18 -8.5
v 3 18 -8.5

# faces
f 3/10/1 2/10/1 1/10/1
f 4/10/1 2/10/1 3/10/1
f 9/10/1 6/10/1 5/10/1
f 9/10/1 8/10/1 7/10/1
f 9/10/1 7/10/1 6/10/1
f 10/10/1 8/10/1 9/10/1
f 15/10/1 12/10/1 11/10/1
f 16/10/1 12/10/1 15/10/1
f 17/10/1 14/10/1 13/10/1
f 18/10/1 14/10/1 17/10/1
f 19/7/1 17/7/1 16/7/1
f 20/7/1 17/7/1 19/7/1
f 21/7/1 19/7/1 16/7/1
f 22/7/1 19/7/1 21/7/1
f 23/7/1 17/7/1 20/7/1
f 24/7/1 17/7/1 23/7/1
f 25/1/1 22/1/1 21/1/1
f 26/7/1 19/7/1 22/7/1
f 26/1/1 22/1/1 25/1/1
f 27/7/1 23/7/1 20/7/1
f 27/1/1 24/1/1 23/1/1
f 28/1/1 24/1/1 27/1/1
f 29/2/1 26/2/1 25/2/1
f 30/7/1 19/7/1 26/7/1
f 30/2/1 26/2/1 29/2/1
f 31/7/1 27/7/1 20/7/1
f 31/2/1 28/2/1 27/2/1
f 32/2/1 28/2/1 31/2/1
f 33/7/1 19/7/1 30/7/1
f 33/7/1 30/7/1 29/7/1
f 34/9/1 20/9/1 19/9/1
f 34/7/1 19/7/1 33/7/1
f 35/7/1 33/7/1 29/7/1
f 35/9/1 34/9/1 33/9/1
f 36/9/1 20/9/1 34/9/1
f 36/9/1 34/9/1 35/9/1
f 37/7/1 36/7/1 35/7/1
f 37/9/1 20/9/1 36/9/1
f 38/7/1 32/7/1 31/7/1
f 38/9/1 20/9/1 37/9/1
f 38/7/1 31/7/1 20/7/1
f 39/7/1 35/7/1 29/7/1
f 39/7/1 37/7/1 35/7/1
f 39/7/1 38/7/1 37/7/1
f 40/7/1 32/7/1 38/7/1
f 40/7/1 38/7/1 39/7/1
f 45/6/1 42/6/1 41/6/1
f 46/6/1 42/6/1 45/6/1
f 47/6/1 44/6/1 43/6/1
f 48/6/1 44/6/1 47/6/1
f 51/7/1 50/7/1 49/7/1
f 52/7/1 50/7/1 51/7/1
f 57/11/1 54/11/1 53/11/1
f 58/11/1 54/11/1 57/11/1
f 59/11/1 56/11/1 55/11/1
f 60/11/1 56/11/1 59/11/1
f 65/11/1 62/11/1 61/11/1
f 66/11/1 62/11/1 65/11/1
f 67/11/1 64/11/1 63/11/1
f 68/11/1 64/11/1 67/11/1
f 73/11/1 70/11/1 69/11/1
f 74/11/1 70/11/1 73/11/1
f 75/11/1 72/11/1 71/11/1
f 76/11/1 72/11/1 75/11/1
f 81/2/1 78/2/1 77/2/1
f 82/2/1 78/2/1 81/2/1
f 83/2/1 80/2/1 79/2/1
f 84/2/1 80/2/1 83/2/1
f 89/6/1 86/6/1 85/6/1
f 90/6/1 86/6/1 89/6/1
f 91/5/1 88/5/1 87/5/1
f 92/5/1 88/5/1 91/5/1
f 95/10/1 94/10/1 93/10/1
f 96/10/1 94/10/1 95/10/1
f 99/10/1 98/10/1 97/10/1
f 100/10/1 98/10/1 99/10/1
f 101/10/2 102/10/2 103/10/2
f 103/10/2 102/10/2 104/10/2
f 105/10/2 106/10/2 109/10/2
f 109/10/2 106/10/2 110/10/2
f 107/10/2 108/10/2 111/10/2
f 111/10/2 108/10/2 112/10/2
f 113/7/2 114/7/2 115/7/2
f 115/7/2 114/7/2 116/7/2
f 117/6/2 118/6/2 121/6/2
f 121/6/2 118/6/2 122/6/2
f 119/6/2 120/6/2 123/6/2
f 123/6/2 120/6/2 124/6/2
f 125/11/2 126/11/2 129/11/2
f 126/7/2 127/7/2 129/7/2
f 127/11/2 128/11/2 130/11/2
f 129/7/2 127/7/2 130/7/2
f 125/11/2 129/11/2 131/11/2
f 131/11/2 129/11/2 132/11/2
f 130/11/2 128/11/2 133/11/2
f 133/11/2 128/11/2 134/11/2
f 135/11/2 136/11/2 139/11/2
f 139/11/2 136/11/2 140/11/2
f 137/11/2 138/11/2 141/11/2
f 141/11/2 138/11/2 142/11/2
f 143/2/2 144/2/2 150/2/2
f 144/2/2 145/2/2 150/2/2
f 146/2/2 147/2/2 150/2/2
f 145/2/2 146/2/2 150/2/2
f 150/2/2 147/2/2 151/2/2
f 147/8/2 148/8/2 152/8/2
f 151/2/2 147/2/2 152/2/2
f 152/8/2 148/8/2 153/8/2
f 150/2/2 151/2/2 155/2/2
f 149/2/2 150/2/2 155/2/2
f 155/2/2 151/2/2 156/2/2
f 153/2/2 154/2/2 157/2/2
f 152/2/2 153/2/2 157/2/2
f 157/2/2 154/2/2 158/2/2
f 151/12/2 152/12/2 159/12/2
f 159/12/2 152/12/2 160/12/2
f 156/2/2 151/2/2 161/2/2
f 151/12/2 159/12/2 161/12/2
f 159/2/2 160/2/2 162/2/2
f 161/12/2 159/12/2 162/12/2
f 160/12/2 152/12/2 163/12/2
f 162/2/2 160/2/2 163/2/2
f 152/2/2 157/2/2 164/2/2
f 163/12/2 152/12/2 164/12/2
f 161/2/2 162/2/2 165/2/2
f 162/2/2 163/2/2 165/2/2
f 163/2/2 164/2/2 165/2/2
f 156/2/2 161/2/2 165/2/2
f 164/2/2 157/2/2 166/2/2
f 165/2/2 164/2/2 166/2/2
f 167/6/2 168/6/2 171/6/2
f 171/6/2 168/6/2 172/6/2
f 169/5/2 170/5/2 173/5/2
f 173/5/2 170/5/2 174/5/2
f 175/10/2 176/10/2 179/10/2
f 179/10/2 176/10/2 180/10/2
f 177/10/2 178/10/2 181/10/2
f 181/10/2 178/10/2 182/10/2
f 180/2/2 181/2/2 183/2/2
f 183/2/2 181/2/2 184/2/2
f 184/2/2 181/2/2 185/2/2
f 185/2/2 181/2/2 186/2/2
f 186/2/2 181/2/2 187/2/2
f 187/2/2 181/2/2 188/2/2
f 188/2/2 181/2/2 189/2/2
f 189/2/2 181/2/2 190/2/2
f 190/2/2 181/2/2 191/2/2
f 191/2/2 181/2/2 192/2/2
f 192/2/2 181/2/2 193/2/2
f 193/2/2 181/2/2 194/2/2
f 194/2/2 181/2/2 195/2/2
f 195/2/2 181/2/2 196/2/2
f 180/2/2 183/2/2 197/2/2
f 197/2/2 183/2/2 198/2/2
f 183/4/2 184/4/2 199/4/2
f 198/2/2 183/2/2 199/2/2
f 184/2/2 185/2/2 200/2/2
f 199/4/2 184/4/2 200/4/2
f 185/4/2 186/4/2 201/4/2
f 200/2/2 185/2/2 201/2/2
f 186/2/2 187/2/2 202/2/2
f 201/4/2 186/4/2 202/4/2
f 187/4/2 188/4/2 203/4/2
f 202/2/2 187/2/2 203/2/2
f 188/2/2 189/2/2 204/2/2
f 203/4/2 188/4/2 204/4/2
f 189/4/2 190/4/2 205/4/2
f 204/2/2 189/2/2 205/2/2
f 190/2/2 191/2/2 206/2/2
f 205/4/2 190/4/2 206/4/2
f 191/4/2 192/4/2 207/4/2
f 206/2/2 191/2/2 207/2/2
f 192/2/2 193/2/2 208/2/2
f 207/4/2 192/4/2 208/4/2
f 193/4/2 194/4/2 209/4/2
f 208/2/2 193/2/2 209/2/2
f 194/2/2 195/2/2 210/2/2
f 209/4/2 194/4/2 210/4/2
f 195/4/2 196/4/2 211/4/2
f 210/2/2 195/2/2 211/2/2
f 196/2/2 181/2/2 212/2/2
f 211/4/2 196/4/2 212/4/2
f 212/2/2 181/2/2 213/2/2
f 213/2/2 181/2/2 214/2/2
f 197/8/2 198/8/2 215/8/2
f 198/2/2 199/2/2 216/2/2
f 215/8/2 198/8/2 216/8/2
f 199/2/2 200/2/2 216/2/2
f 200/2/2 201/2/2 216/2/2
f 201/2/2 202/2/2 216/2/2
f 202/2/2 203/2/2 216/2/2
f 203/2/2 204/2/2 216/2/2
f 204/2/2 205/2/2 216/2/2
f 205/3/2 206/3/2 217/3/2
f 216/2/2 205/2/2 217/2/2
f 210/2/2 211/2/2 218/2/2
f 217/3/2 206/3/2 218/3/2
f 212/2/2 213/2/2 218/2/2
f 207/2/2 208/2/2 218/2/2
f 206/2/2 207/2/2 218/2/2
f 211/2/2 212/2/2 218/2/2
f 208/2/2 209/2/2 218/2/2
f 209/2/2 210/2/2 218/2/2
f 213/8/2 214/8/2 219/8/2
f 218/2/2 213/2/2 219/2/2
f 219/8/2 214/8/2 220/8/2
f 221/10/2 222/10/2 223/10/2
f 223/10/2 222/10/2 224/10/2
f 227/10/3 226/10/3 225/10/3
f 228/10/3 226/10/3 227/10/3
f 231/11/3 230/11/3 229/11/3
f 232/11/3 230/11/3 231/11/3
f 235/2/3 234/2/3 233/2/3
f 236/2/3 234/2/3 235/2/3
f 239/10/3 238/10/3 237/10/3
f 240/10/3 238/10/3 239/10/3
f 243/10/3 242/10/3 241/10/3
f 244/10/3 242/10/3 243/10/3
f 249/7/3 245/7/3 244/7/3
f 249/1/3 246/1/3 245/1/3
f 250/2/3 247/2/3 246/2/3
f 250/1/3 246/1/3 249/1/3
f 251/7/3 248/7/3 247/7/3
f 251/2/3 247/2/3 250/2/3
f 253/7/3 250/7/3 249/7/3
f 253/7/3 249/7/3 244/7/3
f 253/7/3 251/7/3 250/7/3
f 254/7/3 251/7/3 253/7/3
f 256/6/3 253/6/3 252/6/3
f 256/6/3 254/6/3 253/6/3
f 257/7/3 251/7/3 254/7/3
f 257/6/3 254/6/3 256/6/3
f 258/7/3 251/7/3 257/7/3
f 259/6/3 256/6/3 255/6/3
f 260/8/3 257/8/3 256/8/3
f 260/6/3 256/6/3 259/6/3
f 261/6/3 258/6/3 257/6/3
f 261/8/3 257/8/3 260/8/3
f 262/7/3 251/7/3 258/7/3
f 262/6/3 258/6/3 261/6/3
f 263/6/3 261/6/3 260/6/3
f 264/6/3 261/6/3 263/6/3
f 265/7/3 262/7/3 261/7/3
f 265/6/3 261/6/3 264/6/3
f 268/10/3 264/10/3 263/10/3
f 268/7/3 265/7/3 264/7/3
f 269/7/3 248/7/3 251/7/3
f 269/7/3 265/7/3 268/7/3
f 269/7/3 251/7/3 262/7/3
f 269/7/3 262/7/3 265/7/3
f 270/11/3 267/11/3 266/11/3
f 271/10/3 268/10/3 263/10/3
f 272/11/3 270/11/3 269/11/3
f 272/10/3 268/10/3 271/10/3
f 272/11/3 269/11/3 268/11/3
f 273/11/3 270/11/3 272/11/3
f 274/11/3 267/11/3 270/11/3
f 274/11/3 270/11/3 273/11/3
f 275/2/3 273/2/3 272/2/3
f 276/2/3 273/2/3 275/2/3
f 277/2/3 273/2/3 276/2/3
f 278/2/3 273/2/3 277/2/3
f 279/2/3 275/2/3 272/2/3
f 279/10/3 276/10/3 275/10/3
f 280/2/3 277/2/3 276/2/3
f 280/10/3 276/10/3 279/10/3
f 281/2/3 279/2/3 272/2/3
f 281/2/3 280/2/3 279/2/3
f 282/12/3 278/12/3 277/12/3
f 282/2/3 280/2/3 281/2/3
f 282/2/3 277/2/3 280/2/3
f 284/2/3 281/2/3 272/2/3
f 285/10/3 284/10/3 283/10/3
f 286/2/3 281/2/3 284/2/3
f 286/10/3 284/10/3 285/10/3
f 287/2/3 281/2/3 286/2/3
f 288/8/3 282/8/3 281/8/3
f 289/12/3 278/12/3 282/12/3
f 289/8/3 282/8/3 288/8/3
f 290/12/3 278/12/3 289/12/3
f 291/2/3 273/2/3 278/2/3
f 291/12/3 278/12/3 290/12/3
f 293/6/3 286/6/3 285/6/3
f 293/6/3 287/6/3 286/6/3
f 294/2/3 281/2/3 287/2/3
f 294/6/3 287/6/3 293/6/3
f 295/2/3 281/2/3 294/2/3
f 296/8/3 288/8/3 281/8/3
f 296/2/3 289/2/3 288/2/3
f 297/2/3 289/2/3 296/2/3
f 298/2/3 291/2/3 290/2/3
f 299/2/3 273/2/3 291/2/3
f 299/2/3 291/2/3 298/2/3
f 300/6/3 293/6/3 292/6/3
f 301/8/3 294/8/3 293/8/3
f 301/6/3 293/6/3 300/6/3
f 302/6/3 295/6/3 294/6/3
f 302/8/3 294/8/3 301/8/3
f 303/2/3 281/2/3 295/2/3
f 303/6/3 295/6/3 302/6/3
f 304/6/3 302/6/3 301/6/3
f 305/6/3 302/6/3 304/6/3
f 306/2/3 303/2/3 302/2/3
f 306/6/3 302/6/3 305/6/3
f 307/10/3 305/10/3 304/10/3
f 308/2/3 306/2/3 305/2/3
f 308/10/3 305/10/3 307/10/3
f 310/2/3 306/2/3 308/2/3
f 311/2/3 281/2/3 303/2/3
f 311/8/3 296/8/3 281/8/3
f 311/2/3 306/2/3 310/2/3
f 311/2/3 303/2/3 306/2/3
f 312/8/3 296/8/3 311/8/3
f 313/10/3 310/10/3 309/10/3
f 314/10/3 310/10/3 313/10/3
f 317/10/3 316/10/3 315/10/3
f 318/10/3 317/10/3 315/10/3
f 319/10/3 317/10/3 318/10/3
f 324/6/3 321/6/3 320/6/3
f 325/6/3 321/6/3 324/6/3
f 326/6/3 323/6/3 322/6/3
f 327/6/3 323/6/3 326/6/3
f 331/11/3 329/11/3 328/11/3
f 332/11/3 331/11/3 330/11/3
f 333/11/3 329/11/3 331/11/3
f 333/11/3 331/11/3 332/11/3
f 336/5/3 335/5/3 334/5/3
f 337/5/3 335/5/3 336/5/3
f 338/6/4 339/6/4 342/6/4
f 342/6/4 339/6/4 343/6/4
f 340/6/4 341/6/4 344/6/4
f 344/6/4 341/6/4 345/6/4
f 346/11/4 347/11/4 349/11/4
f 348/11/4 349/11/4 350/11/4
f 349/11/4 347/11/4 351/11/4
f 350/11/4 349/11/4 351/11/4
f 352/6/4 353/6/4 354/6/4
f 354/6/4 353/6/4 355/6/4
f 356/10/4 357/10/4 358/10/4
f 356/10/4 358/10/4 359/10/4
f 359/10/4 358/10/4 360/10/4
f 361/10/4 362/10/4 363/10/4
f 363/10/4 362/10/4 364/10/4
f 364/7/4 365/7/4 369/7/4
f 365/1/4 366/1/4 369/1/4
f 366/2/4 367/2/4 370/2/4
f 369/1/4 366/1/4 370/1/4
f 367/7/4 368/7/4 371/7/4
f 370/2/4 367/2/4 371/2/4
f 369/7/4 370/7/4 373/7/4
f 364/7/4 369/7/4 373/7/4
f 370/7/4 371/7/4 373/7/4
f 373/7/4 371/7/4 374/7/4
f 372/6/4 373/6/4 376/6/4
f 373/6/4 374/6/4 376/6/4
f 374/7/4 371/7/4 377/7/4
f 376/6/4 374/6/4 377/6/4
f 377/7/4 371/7/4 378/7/4
f 375/6/4 376/6/4 379/6/4
f 376/8/4 377/8/4 380/8/4
f 379/6/4 376/6/4 380/6/4
f 377/6/4 378/6/4 381/6/4
f 380/8/4 377/8/4 381/8/4
f 378/7/4 371/7/4 382/7/4
f 381/6/4 378/6/4 382/6/4
f 380/6/4 381/6/4 383/6/4
f 383/6/4 381/6/4 384/6/4
f 381/7/4 382/7/4 385/7/4
f 384/6/4 381/6/4 385/6/4
f 383/10/4 384/10/4 388/10/4
f 384/7/4 385/7/4 388/7/4
f 371/7/4 368/7/4 389/7/4
f 388/7/4 385/7/4 389/7/4
f 382/7/4 371/7/4 389/7/4
f 385/7/4 382/7/4 389/7/4
f 386/11/4 387/11/4 390/11/4
f 383/10/4 388/10/4 391/10/4
f 389/11/4 390/11/4 392/11/4
f 391/10/4 388/10/4 392/10/4
f 388/11/4 389/11/4 392/11/4
f 392/11/4 390/11/4 393/11/4
f 390/11/4 387/11/4 394/11/4
f 393/11/4 390/11/4 394/11/4
f 392/2/4 393/2/4 395/2/4
f 395/2/4 393/2/4 396/2/4
f 396/2/4 393/2/4 397/2/4
f 397/2/4 393/2/4 398/2/4
f 392/2/4 395/2/4 399/2/4
f 395/10/4 396/10/4 399/10/4
f 396/2/4 397/2/4 400/2/4
f 399/10/4 396/10/4 400/10/4
f 392/2/4 399/2/4 401/2/4
f 399/2/4 400/2/4 401/2/4
f 397/12/4 398/12/4 402/12/4
f 401/2/4 400/2/4 402/2/4
f 400/2/4 397/2/4 402/2/4
f 392/2/4 401/2/4 404/2/4
f 403/10/4 404/10/4 405/10/4
f 404/2/4 401/2/4 406/2/4
f 405/10/4 404/10/4 406/10/4
f 406/2/4 401/2/4 407/2/4
f 402/12/4 398/12/4 408/12/4
f 401/8/4 402/8/4 408/8/4
f 408/12/4 398/12/4 409/12/4
f 398/2/4 393/2/4 410/2/4
f 409/12/4 398/12/4 410/12/4
f 405/5/4 406/5/4 412/5/4
f 406/6/4 407/6/4 413/6/4
f 412/5/4 406/5/4 413/5/4
f 407/2/4 401/2/4 414/2/4
f 413/6/4 407/6/4 414/6/4
f 414/2/4 401/2/4 415/2/4
f 401/8/4 408/8/4 416/8/4
f 416/8/4 408/8/4 417/8/4
f 409/2/4 410/2/4 418/2/4
f 410/2/4 393/2/4 419/2/4
f 418/2/4 410/2/4 419/2/4
f 411/5/4 412/5/4 420/5/4
f 412/8/4 413/8/4 421/8/4
f 420/5/4 412/5/4 421/5/4
f 413/8/4 414/8/4 421/8/4
f 421/8/4 414/8/4 422/8/4
f 414/6/4 415/6/4 423/6/4
f 422/8/4 414/8/4 423/8/4
f 415/2/4 401/2/4 424/2/4
f 423/6/4 415/6/4 424/6/4
f 421/5/4 422/5/4 425/5/4
f 422/6/4 423/6/4 426/6/4
f 425/5/4 422/5/4 426/5/4
f 423/2/4 424/2/4 427/2/4
f 426/6/4 423/6/4 427/6/4
f 426/2/4 427/2/4 429/2/4
f 401/8/4 416/8/4 430/8/4
f 424/2/4 401/2/4 430/2/4
f 429/2/4 427/2/4 430/2/4
f 427/2/4 424/2/4 430/2/4
f 430/8/4 416/8/4 431/8/4
f 428/10/4 429/10/4 432/10/4
f 432/10/4 429/10/4 433/10/4
f 434/10/4 435/10/4 436/10/4
f 436/10/4 435/10/4 437/10/4
f 438/11/4 439/11/4 440/11/4
f 440/11/4 439/11/4 441/11/4
f 442/2/4 443/2/4 444/2/4
f 444/2/4 443/2/4 445/2/4
f 446/10/4 447/10/4 448/10/4
f 448/10/4 447/10/4 449/10/4
f 454/6/5 451/6/5 450/6/5
f 455/6/5 451/6/5 454/6/5
f 456/6/5 453/6/5 452/6/5
f 457/6/5 453/6/5 456/6/5
f 460/10/5 459/10/5 458/10/5
f 461/10/5 459/10/5 460/10/5
f 466/6/5 463/6/5 462/6/5
f 467/6/5 463/6/5 466/6/5
f 468/5/5 465/5/5 464/5/5
f 469/5/5 465/5/5 468/5/5
f 477/10/5 471/10/5 470/10/5
f 478/10/5 471/10/5 477/10/5
f 482/11/5 473/11/5 472/11/5
f 483/11/5 473/11/5 482/11/5
f 488/10/5 475/10/5 474/10/5
f 489/10/5 475/10/5 488/10/5
f 491/10/5 477/10/5 476/10/5
f 491/10/5 478/10/5 477/10/5
f 491/6/5 479/6/5 478/6/5
f 492/6/5 479/6/5 491/6/5
f 493/6/5 481/6/5 480/6/5
f 494/10/5 482/10/5 481/10/5
f 494/10/5 483/10/5 482/10/5
f 494/6/5 481/6/5 493/6/5
f 494/10/5 484/10/5 483/10/5
f 495/6/5 485/6/5 484/6/5
f 495/10/5 484/10/5 494/10/5
f 496/6/5 485/6/5 495/6/5
f 497/6/5 487/6/5 486/6/5
f 498/10/5 490/10/5 489/10/5
f 498/10/5 489/10/5 488/10/5
f 498/6/5 487/6/5 497/6/5
f 498/10/5 488/10/5 487/10/5
f 499/10/5 496/10/5 495/10/5
f 499/10/5 492/10/5 491/10/5
f 499/10/5 498/10/5 497/10/5
f 499/10/5 497/10/5 496/10/5
f 499/10/5 494/10/5 493/10/5
f 499/10/5 491/10/5 476/10/5
f 499/10/5 495/10/5 494/10/5
f 499/10/5 493/10/5 492/10/5
f 500/10/5 498/10/5 499/10/5
f 502/10/5 498/10/5 500/10/5
f 503/10/5 498/10/5 502/10/5
f 504/10/5 498/10/5 503/10/5
f 505/10/5 498/10/5 504/10/5
f 506/10/5 498/10/5 505/10/5
f 507/10/5 498/10/5 506/10/5
f 508/10/5 498/10/5 507/10/5
f 509/10/5 498/10/5 508/10/5
f 510/10/5 490/10/5 498/10/5
f 510/10/5 498/10/5 509/10/5
f 511/10/5 502/10/5 501/10/5
f 511/10/5 503/10/5 502/10/5
f 512/10/5 503/10/5 511/10/5
f 513/6/5 504/6/5 503/6/5
f 513/10/5 503/10/5 512/10/5
f 514/6/5 504/6/5 513/6/5
f 515/6/5 506/6/5 505/6/5
f 516/10/5 507/10/5 506/10/5
f 516/6/5 506/6/5 515/6/5
f 517/10/5 507/10/5 516/10/5
f 518/10/5 507/10/5 517/10/5
f 519/5/5 508/5/5 507/5/5
f 519/10/5 507/10/5 518/10/5
f 520/5/5 508/5/5 519/5/5
f 521/5/5 510/5/5 509/5/5
f 522/10/5 490/10/5 510/10/5
f 522/5/5 510/5/5 521/5/5
f 523/10/5 490/10/5 522/10/5
f 524/10/5 490/10/5 523/10/5
f 525/10/5 513/10/5 512/10/5
f 526/10/5 513/10/5 525/10/5
f 527/11/5 518/11/5 517/11/5
f 528/11/5 518/11/5 527/11/5
f 529/10/5 523/10/5 522/10/5
f 530/10/5 523/10/5 529/10/5
f 533/7/5 532/7/5 531/7/5
f 534/7/5 532/7/5 533/7/5
f 537/2/5 536/2/5 535/2/5
f 538/2/5 536/2/5 537/2/5
f 541/2/5 540/2/5 539/2/5
f 542/2/5 540/2/5 541/2/5
f 545/11/5 544/11/5 543/11/5
f 546/11/5 544/11/5 545/11/5
f 549/11/5 548/11/5 547/11/5
f 550/11/5 548/11/5 549/11/5
f 551/10/6 552/10/6 553/10/6
f 553/10/6 552/10/6 554/10/6
f 555/10/6 556/10/6 562/10/6
f 562/10/6 556/10/6 563/10/6
f 557/11/6 558/11/6 564/11/6
f 564/11/6 558/11/6 565/11/6
f 559/10/6 560/10/6 566/10/6
f 566/10/6 560/10/6 567/10/6
f 561/10/6 562/10/6 569/10/6
f 569/10/6 562/10/6 570/10/6
f 567/10/6 568/10/6 575/10/6
f 575/10/6 568/10/6 576/10/6
f 570/10/6 571/10/6 577/10/6
f 577/10/6 571/10/6 578/10/6
f 572/11/6 573/11/6 579/11/6
f 579/11/6 573/11/6 580/11/6
f 574/10/6 575/10/6 581/10/6
f 581/10/6 575/10/6 582/10/6
f 583/7/6 584/7/6 585/7/6
f 585/7/6 584/7/6 586/7/6
f 587/8/6 588/8/6 589/8/6
f 589/8/6 588/8/6 590/8/6
f 589/2/6 590/2/6 591/2/6
f 591/2/6 590/2/6 592/2/6
f 591/3/6 592/3/6 593/3/6
f 593/3/6 592/3/6 594/3/6
f 593/2/6 594/2/6 595/2/6
f 595/2/6 594/2/6 596/2/6
f 595/8/6 596/8/6 597/8/6
f 597/8/6 596/8/6 598/8/6
f 599/2/6 600/2/6 601/2/6
f 601/2/6 600/2/6 602/2/6
f 603/2/6 604/2/6 605/2/6
f 605/2/6 604/2/6 606/2/6
f 607/2/6 608/2/6 609/2/6
f 609/2/6 608/2/6 610/2/6
f 610/2/6 608/2/6 611/2/6
f 611/2/6 608/2/6 612/2/6
f 613/7/6 614/7/6 615/7/6
f 613/7/6 615/7/6 617/7/6
f 615/7/6 616/7/6 617/7/6
f 617/7/6 616/7/6 618/7/6
f 613/7/6 617/7/6 619/7/6
f 619/7/6 617/7/6 620/7/6
f 621/11/6 622/11/6 623/11/6
f 623/11/6 622/11/6 624/11/6
f 625/11/6 626/11/6 627/11/6
f 627/11/6 626/11/6 628/11/6
